<?xml version="1.0" encoding="UTF-8"?><svg id="Layer_1" xmlns="http://www.w3.org/2000/svg" viewBox="0 0 260 90"><defs><style>.cls-1{fill:#fff;}.cls-2{fill:#009fe3;}.cls-3{fill:#ffed00;}.cls-4{fill:#e6007e;}</style></defs><polygon class="cls-1" points="17.86 58.65 16.23 59.39 0 14.8 4.45 15.09 17.86 58.65"/><path class="cls-2" d="M70.59,5.93c-4.15-4.52-11.79-5-20.59-2.11,7.47-2,13.83-1.29,17.42,2.62,7.47,8.14,.12,27.05-16.43,42.24-15.01,13.77-32.42,19.75-41.11,14.66,8.36,7.19,27.63,1.29,44.02-13.75,17.01-15.61,24.48-35.16,16.69-43.66Z"/><path class="cls-4" d="M67.19,22.97c-8.48,16.72-22.4,27.82-38.69,36.48L16.38,2.71l43.74,6.75,7.07,13.51Z"/><path class="cls-4" d="M88.11,62.04l-55.39,15.17-.62-3.16c15.54-9.27,29.41-22.7,41.12-41.53l14.89,29.53Z"/><polygon class="cls-3" points="22.76 56.77 21.59 56.7 7.12 5.89 11.61 6.35 22.76 56.77"/><polygon class="cls-3" points="86.65 65.37 86.09 65.77 28.8 83.16 28.73 83.36 28.12 80.02 28.91 79.64 29.16 80.87 86.65 65.37"/><polygon class="cls-1" points="82.67 69.07 82.1 69.46 26.78 87.99 24.34 81.04 25.72 80.59 27.52 85.58 82.67 69.07"/><g><path class="cls-1" d="M108.37,60.25c0-.95,.79-1.71,1.71-1.71s1.71,.76,1.71,1.71-.77,1.71-1.71,1.71-1.71-.76-1.71-1.71Zm.29,14.19v-10.88h2.86v10.88h-2.86Z"/><path class="cls-1" d="M121.7,74.43v-6.58c0-1.51-.79-2.03-2-2.03-1.13,0-2,.63-2.48,1.28v7.32h-2.86v-10.88h2.86v1.42c.7-.83,2.03-1.69,3.81-1.69,2.39,0,3.54,1.35,3.54,3.47v7.68h-2.86Z"/><path class="cls-1" d="M133.73,71.73v-5.68h-1.8v-2.5h1.8v-2.97h2.88v2.97h2.21v2.5h-2.21v4.91c0,.68,.36,1.19,.99,1.19,.43,0,.83-.16,.99-.32l.61,2.16c-.43,.38-1.19,.7-2.39,.7-2,0-3.09-1.04-3.09-2.97Z"/><path class="cls-1" d="M148.14,74.43v-6.62c0-1.51-.79-1.98-2.03-1.98-1.1,0-1.98,.63-2.48,1.28v7.32h-2.86v-15.02h2.86v5.56c.7-.83,2.05-1.69,3.83-1.69,2.39,0,3.54,1.31,3.54,3.42v7.72h-2.86Z"/><path class="cls-1" d="M158.78,63.29c3.24,0,5.45,2.43,5.45,5.99v.63h-8.08c.18,1.37,1.28,2.52,3.13,2.52,1.01,0,2.21-.41,2.9-1.08l1.26,1.85c-1.1,1.01-2.79,1.51-4.48,1.51-3.31,0-5.81-2.23-5.81-5.72,0-3.15,2.32-5.7,5.63-5.7Zm-2.68,4.68h5.36c-.07-1.04-.79-2.41-2.68-2.41-1.78,0-2.54,1.33-2.68,2.41Z"/><path class="cls-1" d="M177.13,63.29c2.23,0,3.58,.97,4.3,1.98l-1.87,1.74c-.52-.74-1.31-1.17-2.3-1.17-1.73,0-2.95,1.26-2.95,3.15s1.22,3.17,2.95,3.17c.99,0,1.78-.45,2.3-1.17l1.87,1.74c-.72,1.01-2.07,1.98-4.3,1.98-3.36,0-5.76-2.36-5.76-5.72s2.41-5.7,5.76-5.7Z"/><path class="cls-1" d="M190.67,74.43v-6.62c0-1.51-.79-1.98-2.03-1.98-1.1,0-1.98,.63-2.48,1.28v7.32h-2.86v-15.02h2.86v5.56c.7-.83,2.05-1.69,3.83-1.69,2.39,0,3.54,1.31,3.54,3.42v7.72h-2.86Z"/><path class="cls-1" d="M202.9,74.43v-1.13c-.74,.88-2.03,1.39-3.44,1.39-1.73,0-3.78-1.17-3.78-3.6s2.05-3.47,3.78-3.47c1.44,0,2.72,.45,3.44,1.33v-1.51c0-1.1-.95-1.82-2.39-1.82-1.17,0-2.25,.43-3.18,1.28l-1.08-1.91c1.33-1.17,3.04-1.71,4.75-1.71,2.48,0,4.75,.99,4.75,4.12v7.03h-2.86Zm0-3.96c-.47-.63-1.37-.95-2.3-.95-1.13,0-2.05,.61-2.05,1.64s.92,1.6,2.05,1.6c.92,0,1.82-.32,2.3-.95v-1.35Z"/><path class="cls-1" d="M215.94,74.43v-6.58c0-1.51-.79-2.03-2-2.03-1.13,0-2,.63-2.48,1.28v7.32h-2.86v-10.88h2.86v1.42c.7-.83,2.03-1.69,3.81-1.69,2.39,0,3.54,1.35,3.54,3.47v7.68h-2.86Z"/><path class="cls-1" d="M228.98,74.43v-6.58c0-1.51-.79-2.03-2-2.03-1.13,0-2,.63-2.48,1.28v7.32h-2.86v-10.88h2.86v1.42c.7-.83,2.03-1.69,3.81-1.69,2.39,0,3.54,1.35,3.54,3.47v7.68h-2.86Z"/><path class="cls-1" d="M239.62,63.29c3.24,0,5.45,2.43,5.45,5.99v.63h-8.08c.18,1.37,1.28,2.52,3.13,2.52,1.01,0,2.21-.41,2.9-1.08l1.26,1.85c-1.1,1.01-2.79,1.51-4.48,1.51-3.31,0-5.81-2.23-5.81-5.72,0-3.15,2.32-5.7,5.63-5.7Zm-2.68,4.68h5.36c-.07-1.04-.79-2.41-2.68-2.41-1.78,0-2.54,1.33-2.68,2.41Z"/><path class="cls-1" d="M247.14,74.43v-15.02h2.86v15.02h-2.86Z"/></g><g><path class="cls-1" d="M122.12,40.66h-1.62v7.43h-12.14V13.04h13.76c5.55,0,9.58,.96,12.11,2.88,2.53,1.92,3.79,5.52,3.79,10.8s-1.27,8.93-3.82,10.93c-2.55,2.01-6.57,3.01-12.08,3.01Zm-1.62-9.57h1.1c1.5,0,2.57-.33,3.22-.99,.64-.66,.97-1.8,.97-3.4s-.31-2.68-.92-3.24c-.61-.56-1.7-.84-3.27-.84h-1.1v8.47Z"/><path class="cls-1" d="M155.5,39.04h-2.98v9.05h-12.14V13.04h14.75c5.4,0,9.28,.9,11.61,2.69,2.34,1.8,3.5,5.13,3.5,9.99s-1.29,8.34-3.87,10.44l3.45,11.93h-12.35l-1.99-9.05Zm-.05-9.57c1.71,0,2.56-1.14,2.56-3.43s-.96-3.43-2.88-3.43h-2.67v6.85h2.98Z"/><path class="cls-1" d="M172.65,48.09V13.04h12.14V48.09h-12.14Z"/><path class="cls-1" d="M187.93,48.09V13.04h11.93l8.06,13.29h.73V13.04h12.14V48.09h-11.98l-7.95-14.28h-.78v14.28h-12.14Z"/><path class="cls-1" d="M222.82,22.93V13.04h26.15v9.89h-6.8v25.16h-12.14V22.93h-7.22Z"/></g></svg>