<?xml version="1.0" encoding="UTF-8"?><svg id="Layer_1" xmlns="http://www.w3.org/2000/svg" viewBox="0 0 260 90"><defs><style>.cls-1,.cls-2{fill:#fff;}.cls-3{opacity:.86;}.cls-3,.cls-4{fill:#d71921;}.cls-2{font-family:ProximaNova-Bold, 'Proxima Nova';font-size:22.28px;font-weight:700;}</style></defs><g><polygon class="cls-1" points="17.67 58.51 16.05 59.24 0 15.12 4.41 15.41 17.67 58.51"/><path class="cls-3" d="M69.84,6.35c-4.11-4.47-11.66-4.95-20.37-2.09,7.39-1.97,13.68-1.28,17.24,2.59,7.39,8.06,.12,26.76-16.25,41.78-14.85,13.63-32.08,19.54-40.67,14.51,8.27,7.11,27.33,1.28,43.55-13.61,16.83-15.45,24.22-34.79,16.51-43.19Z"/><path class="cls-4" d="M66.47,23.2c-8.39,16.54-22.17,27.52-38.28,36.09L16.21,3.16l43.27,6.68,6.99,13.36Z"/><path class="cls-1" d="M87.17,61.86l-54.8,15-.61-3.13c15.37-9.17,29.1-22.46,40.68-41.09l14.73,29.22Z"/><polygon class="cls-1" points="22.52 56.65 21.36 56.58 7.05 6.31 11.49 6.76 22.52 56.65"/><polygon class="cls-1" points="85.73 65.16 85.17 65.54 28.5 82.75 28.42 82.95 27.82 79.65 28.6 79.27 28.85 80.49 85.73 65.16"/><polygon class="cls-1" points="81.78 68.81 81.22 69.2 26.49 87.53 24.08 80.65 25.45 80.21 27.23 85.15 81.78 68.81"/></g><g><text class="cls-2" transform="translate(106.1 74.12)"><tspan x="0" y="0">in the channel</tspan></text><g><path class="cls-4" d="M104.54,44.61V8.38h12.33l8.33,13.74h.76V8.38h12.55V40.81c0,2.1-1.7,3.8-3.8,3.8h-8.58l-8.22-14.76h-.81v11.28c0,1.92-1.56,3.48-3.48,3.48h-9.07Z"/><path class="cls-4" d="M141.74,44.61V8.38h27.15v10h-14.6v3.08h11.36v9.9h-11.36v3.24h14.6v6.37c0,2-1.62,3.63-3.63,3.63h-23.52Z"/><path class="cls-4" d="M174.4,44.61l-4.27-36.23h12.49l1.73,23.58h.97l2.43-23.04h13.68l2.7,23.04h.97l1.08-23.58h12.6l-3.6,32.59c-.23,2.07-1.98,3.64-4.06,3.64h-14.67l-1.78-22.28-.54-.05-1.53,18.53c-.18,2.15-1.97,3.81-4.13,3.81h-14.08Z"/><path class="cls-4" d="M248.49,18.82c-5.08-.54-8.78-.81-11.08-.81s-3.65,.06-4.03,.19-.57,.39-.57,.78,.22,.7,.65,.92c.43,.22,1.79,.58,4.08,1.08,2.29,.5,4.16,1,5.62,1.49,1.46,.49,2.78,1.17,3.95,2.05,1.17,.88,1.95,1.97,2.33,3.25,.38,1.28,.57,3,.57,5.16,0,4.47-1.19,7.66-3.57,9.57-2.38,1.91-5.97,2.87-10.76,2.87-2.31,0-4.73-.16-7.27-.49-2.54-.33-4.5-.65-5.87-.97l-2.11-.49,.54-9.57c5.52,.79,10.04,1.19,13.57,1.19,1.87,0,2.81-.41,2.81-1.24,0-.36-.22-.62-.65-.78-.43-.16-1.6-.39-3.52-.68-5.05-.79-8.48-2.03-10.3-3.7-1.82-1.68-2.73-4.43-2.73-8.25,0-4.87,1.17-8.2,3.51-10,2.34-1.8,5.95-2.7,10.82-2.7,3.42,0,7.44,.34,12.06,1.03l2.27,.38-.33,9.73Z"/></g></g></svg>